<svg xmlns="http://www.w3.org/2000/svg" xmlns:xlink="http://www.w3.org/1999/xlink" width="40" zoomAndPan="magnify" viewBox="0 0 30 30.000001" height="40" preserveAspectRatio="xMidYMid meet" version="1.0"><defs><g/><clipPath id="4eef9219eb"><path d="M 0.519531 0.0351562 L 29.515625 0.0351562 L 29.515625 29.03125 L 0.519531 29.03125 Z M 0.519531 0.0351562 " clip-rule="nonzero"/></clipPath><clipPath id="1728659dad"><path d="M 17 1 L 21.800781 1 L 21.800781 6 L 17 6 Z M 17 1 " clip-rule="nonzero"/></clipPath><clipPath id="d671409211"><rect x="0" width="22" y="0" height="8"/></clipPath></defs><g clip-path="url(#4eef9219eb)"><path fill="#000000" d="M 6.316406 0.0351562 L 23.710938 0.0351562 C 24.089844 0.0351562 24.46875 0.0742188 24.839844 0.148438 C 25.214844 0.222656 25.578125 0.332031 25.929688 0.476562 C 26.28125 0.625 26.613281 0.800781 26.929688 1.011719 C 27.246094 1.226562 27.539062 1.464844 27.808594 1.734375 C 28.078125 2.003906 28.320312 2.296875 28.53125 2.613281 C 28.742188 2.929688 28.921875 3.261719 29.066406 3.613281 C 29.210938 3.964844 29.320312 4.328125 29.394531 4.703125 C 29.46875 5.074219 29.507812 5.453125 29.507812 5.832031 L 29.507812 23.226562 C 29.507812 23.605469 29.46875 23.984375 29.394531 24.355469 C 29.320312 24.730469 29.210938 25.09375 29.066406 25.445312 C 28.921875 25.796875 28.742188 26.128906 28.53125 26.445312 C 28.320312 26.761719 28.078125 27.054688 27.808594 27.324219 C 27.539062 27.59375 27.246094 27.835938 26.929688 28.046875 C 26.613281 28.257812 26.28125 28.4375 25.929688 28.582031 C 25.578125 28.726562 25.214844 28.835938 24.839844 28.910156 C 24.46875 28.984375 24.089844 29.023438 23.710938 29.023438 L 6.316406 29.023438 C 5.9375 29.023438 5.558594 28.984375 5.1875 28.910156 C 4.8125 28.835938 4.449219 28.726562 4.097656 28.582031 C 3.746094 28.4375 3.414062 28.257812 3.097656 28.046875 C 2.78125 27.835938 2.488281 27.59375 2.21875 27.324219 C 1.949219 27.054688 1.707031 26.761719 1.496094 26.445312 C 1.285156 26.128906 1.105469 25.796875 0.960938 25.445312 C 0.816406 25.09375 0.707031 24.730469 0.632812 24.355469 C 0.558594 23.984375 0.519531 23.605469 0.519531 23.226562 L 0.519531 5.832031 C 0.519531 5.453125 0.558594 5.074219 0.632812 4.703125 C 0.707031 4.328125 0.816406 3.964844 0.960938 3.613281 C 1.105469 3.261719 1.285156 2.929688 1.496094 2.613281 C 1.707031 2.296875 1.949219 2.003906 2.21875 1.734375 C 2.488281 1.464844 2.78125 1.226562 3.097656 1.011719 C 3.414062 0.800781 3.746094 0.625 4.097656 0.476562 C 4.449219 0.332031 4.8125 0.222656 5.1875 0.148438 C 5.558594 0.0742188 5.9375 0.0351562 6.316406 0.0351562 Z M 6.316406 0.0351562 " fill-opacity="1" fill-rule="nonzero"/></g><g fill="#ffffff" fill-opacity="1"><g transform="translate(9.306955, 17.225828)"><g><path d="M 5.71875 0.09375 C 4.800781 0.09375 3.972656 -0.0703125 3.234375 -0.40625 C 2.503906 -0.75 1.921875 -1.25 1.484375 -1.90625 C 1.054688 -2.570312 0.84375 -3.378906 0.84375 -4.328125 C 0.84375 -4.984375 0.957031 -5.695312 1.1875 -6.46875 C 1.6875 -8.113281 2.445312 -9.300781 3.46875 -10.03125 C 4.488281 -10.757812 5.582031 -11.125 6.75 -11.125 C 7.375 -11.125 7.925781 -11.03125 8.40625 -10.84375 C 8.882812 -10.65625 9.328125 -10.382812 9.734375 -10.03125 L 10.1875 -10.375 C 10.476562 -10.613281 10.722656 -10.773438 10.921875 -10.859375 C 11.128906 -10.941406 11.359375 -10.984375 11.609375 -10.984375 C 11.890625 -10.984375 12.109375 -10.921875 12.265625 -10.796875 C 12.429688 -10.679688 12.515625 -10.507812 12.515625 -10.28125 C 12.515625 -10.164062 12.492188 -10.046875 12.453125 -9.921875 L 11.53125 -7.359375 C 11.4375 -7.054688 11.316406 -6.84375 11.171875 -6.71875 C 11.035156 -6.601562 10.832031 -6.546875 10.5625 -6.546875 C 10.28125 -6.546875 10.046875 -6.644531 9.859375 -6.84375 C 9.679688 -7.050781 9.476562 -7.398438 9.25 -7.890625 C 8.988281 -8.410156 8.773438 -8.753906 8.609375 -8.921875 C 8.441406 -9.085938 8.195312 -9.171875 7.875 -9.171875 C 7.425781 -9.171875 6.992188 -8.890625 6.578125 -8.328125 C 6.160156 -7.773438 5.785156 -6.945312 5.453125 -5.84375 C 5.160156 -4.90625 5.015625 -4.125 5.015625 -3.5 C 5.015625 -2.957031 5.117188 -2.550781 5.328125 -2.28125 C 5.535156 -2.007812 5.816406 -1.875 6.171875 -1.875 C 6.679688 -1.875 7.101562 -1.988281 7.4375 -2.21875 C 7.78125 -2.445312 8.125 -2.757812 8.46875 -3.15625 C 8.6875 -3.394531 8.863281 -3.570312 9 -3.6875 C 9.144531 -3.800781 9.289062 -3.859375 9.4375 -3.859375 C 9.632812 -3.859375 9.84375 -3.757812 10.0625 -3.5625 C 10.28125 -3.375 10.382812 -3.179688 10.375 -2.984375 C 10.382812 -2.734375 10.191406 -2.359375 9.796875 -1.859375 C 9.398438 -1.359375 8.847656 -0.90625 8.140625 -0.5 C 7.429688 -0.101562 6.625 0.09375 5.71875 0.09375 Z M 5.71875 0.09375 "/></g></g></g><g transform="matrix(1, 0, 0, 1, 4, 19)"><g clip-path="url(#d671409211)"><g fill="#ffffff" fill-opacity="1"><g transform="translate(1.041084, 5.193477)"><g><path d="M 1.6875 0.03125 C 1.414062 0.03125 1.171875 -0.015625 0.953125 -0.109375 C 0.734375 -0.210938 0.5625 -0.363281 0.4375 -0.5625 C 0.3125 -0.757812 0.25 -1 0.25 -1.28125 C 0.25 -1.46875 0.28125 -1.675781 0.34375 -1.90625 C 0.5 -2.382812 0.722656 -2.734375 1.015625 -2.953125 C 1.316406 -3.171875 1.640625 -3.28125 1.984375 -3.28125 C 2.171875 -3.28125 2.332031 -3.25 2.46875 -3.1875 C 2.613281 -3.132812 2.75 -3.054688 2.875 -2.953125 L 3 -3.0625 C 3.082031 -3.125 3.15625 -3.164062 3.21875 -3.1875 C 3.28125 -3.21875 3.347656 -3.234375 3.421875 -3.234375 C 3.503906 -3.234375 3.566406 -3.210938 3.609375 -3.171875 C 3.660156 -3.140625 3.6875 -3.09375 3.6875 -3.03125 C 3.6875 -2.988281 3.679688 -2.953125 3.671875 -2.921875 L 3.390625 -2.171875 C 3.367188 -2.078125 3.335938 -2.007812 3.296875 -1.96875 C 3.253906 -1.9375 3.191406 -1.921875 3.109375 -1.921875 C 3.023438 -1.921875 2.957031 -1.953125 2.90625 -2.015625 C 2.851562 -2.078125 2.789062 -2.179688 2.71875 -2.328125 C 2.644531 -2.472656 2.582031 -2.570312 2.53125 -2.625 C 2.476562 -2.675781 2.40625 -2.703125 2.3125 -2.703125 C 2.1875 -2.703125 2.0625 -2.617188 1.9375 -2.453125 C 1.8125 -2.285156 1.703125 -2.039062 1.609375 -1.71875 C 1.523438 -1.445312 1.484375 -1.21875 1.484375 -1.03125 C 1.484375 -0.875 1.507812 -0.753906 1.5625 -0.671875 C 1.625 -0.585938 1.707031 -0.546875 1.8125 -0.546875 C 1.96875 -0.546875 2.09375 -0.578125 2.1875 -0.640625 C 2.289062 -0.710938 2.394531 -0.8125 2.5 -0.9375 C 2.5625 -1 2.613281 -1.046875 2.65625 -1.078125 C 2.695312 -1.117188 2.738281 -1.140625 2.78125 -1.140625 C 2.84375 -1.140625 2.90625 -1.109375 2.96875 -1.046875 C 3.03125 -0.992188 3.0625 -0.9375 3.0625 -0.875 C 3.0625 -0.800781 3 -0.691406 2.875 -0.546875 C 2.757812 -0.398438 2.597656 -0.265625 2.390625 -0.140625 C 2.179688 -0.0234375 1.945312 0.03125 1.6875 0.03125 Z M 1.6875 0.03125 "/></g></g></g><g fill="#ffffff" fill-opacity="1"><g transform="translate(4.341234, 5.193477)"><g><path d="M 2.78125 -1.25 C 2.863281 -1.25 2.925781 -1.226562 2.96875 -1.1875 C 3.019531 -1.15625 3.046875 -1.101562 3.046875 -1.03125 C 3.046875 -1.007812 3.039062 -0.976562 3.03125 -0.9375 L 2.875 -0.375 C 2.832031 -0.238281 2.773438 -0.140625 2.703125 -0.078125 C 2.628906 -0.0234375 2.515625 0 2.359375 0 L 0.09375 0 C 0.0195312 0 -0.03125 -0.0078125 -0.0625 -0.03125 C -0.101562 -0.0507812 -0.125 -0.0820312 -0.125 -0.125 C -0.125 -0.144531 -0.117188 -0.164062 -0.109375 -0.1875 C -0.0976562 -0.21875 -0.0820312 -0.238281 -0.0625 -0.25 C -0.0390625 -0.269531 -0.015625 -0.289062 0.015625 -0.3125 C 0.0664062 -0.34375 0.109375 -0.375 0.140625 -0.40625 C 0.171875 -0.4375 0.195312 -0.492188 0.21875 -0.578125 L 0.8125 -2.65625 C 0.820312 -2.695312 0.828125 -2.738281 0.828125 -2.78125 C 0.828125 -2.8125 0.820312 -2.835938 0.8125 -2.859375 C 0.800781 -2.890625 0.785156 -2.921875 0.765625 -2.953125 C 0.734375 -2.992188 0.71875 -3.03125 0.71875 -3.0625 C 0.71875 -3.070312 0.722656 -3.085938 0.734375 -3.109375 C 0.742188 -3.148438 0.769531 -3.175781 0.8125 -3.1875 C 0.851562 -3.207031 0.921875 -3.21875 1.015625 -3.21875 L 2.15625 -3.21875 C 2.21875 -3.21875 2.269531 -3.207031 2.3125 -3.1875 C 2.351562 -3.164062 2.375 -3.140625 2.375 -3.109375 C 2.375 -3.085938 2.367188 -3.066406 2.359375 -3.046875 C 2.347656 -3.023438 2.332031 -3.003906 2.3125 -2.984375 C 2.289062 -2.960938 2.273438 -2.945312 2.265625 -2.9375 C 2.253906 -2.9375 2.242188 -2.929688 2.234375 -2.921875 C 2.179688 -2.890625 2.140625 -2.851562 2.109375 -2.8125 C 2.078125 -2.78125 2.050781 -2.726562 2.03125 -2.65625 L 1.40625 -0.46875 L 1.703125 -0.46875 C 1.773438 -0.46875 1.835938 -0.476562 1.890625 -0.5 C 1.941406 -0.53125 2 -0.582031 2.0625 -0.65625 L 2.390625 -1.046875 C 2.453125 -1.117188 2.507812 -1.171875 2.5625 -1.203125 C 2.625 -1.234375 2.695312 -1.25 2.78125 -1.25 Z M 2.78125 -1.25 "/></g></g></g><g fill="#ffffff" fill-opacity="1"><g transform="translate(6.86232, 5.193477)"><g><path d="M 3.859375 -3.25 C 4.003906 -3.25 4.117188 -3.203125 4.203125 -3.109375 C 4.296875 -3.015625 4.34375 -2.894531 4.34375 -2.75 C 4.34375 -2.738281 4.34375 -2.707031 4.34375 -2.65625 C 4.3125 -2.5 4.25 -2.378906 4.15625 -2.296875 C 4.0625 -2.222656 3.953125 -2.1875 3.828125 -2.1875 C 3.742188 -2.1875 3.671875 -2.195312 3.609375 -2.21875 C 3.554688 -2.25 3.503906 -2.296875 3.453125 -2.359375 L 2.65625 -1.328125 L 2.421875 -0.578125 C 2.421875 -0.554688 2.421875 -0.53125 2.421875 -0.5 C 2.421875 -0.445312 2.429688 -0.40625 2.453125 -0.375 C 2.472656 -0.34375 2.503906 -0.3125 2.546875 -0.28125 C 2.578125 -0.25 2.601562 -0.222656 2.625 -0.203125 C 2.644531 -0.179688 2.648438 -0.15625 2.640625 -0.125 C 2.617188 -0.0703125 2.582031 -0.0351562 2.53125 -0.015625 C 2.488281 -0.00390625 2.421875 0 2.328125 0 L 1.109375 0 C 1.023438 0 0.960938 -0.015625 0.921875 -0.046875 C 0.878906 -0.078125 0.867188 -0.117188 0.890625 -0.171875 C 0.890625 -0.203125 0.898438 -0.222656 0.921875 -0.234375 C 0.941406 -0.253906 0.96875 -0.28125 1 -0.3125 C 1.050781 -0.34375 1.09375 -0.375 1.125 -0.40625 C 1.15625 -0.445312 1.179688 -0.503906 1.203125 -0.578125 L 1.4375 -1.328125 L 0.984375 -2.59375 C 0.953125 -2.6875 0.914062 -2.757812 0.875 -2.8125 C 0.832031 -2.863281 0.78125 -2.910156 0.71875 -2.953125 C 0.6875 -2.984375 0.660156 -3.007812 0.640625 -3.03125 C 0.628906 -3.050781 0.625 -3.070312 0.625 -3.09375 C 0.625 -3.132812 0.640625 -3.164062 0.671875 -3.1875 C 0.703125 -3.207031 0.75 -3.21875 0.8125 -3.21875 L 2.109375 -3.21875 C 2.222656 -3.21875 2.300781 -3.207031 2.34375 -3.1875 C 2.382812 -3.175781 2.40625 -3.144531 2.40625 -3.09375 C 2.40625 -3.0625 2.398438 -3.035156 2.390625 -3.015625 C 2.378906 -2.992188 2.359375 -2.96875 2.328125 -2.9375 C 2.304688 -2.90625 2.285156 -2.875 2.265625 -2.84375 C 2.253906 -2.820312 2.25 -2.796875 2.25 -2.765625 C 2.25 -2.753906 2.25 -2.734375 2.25 -2.703125 L 2.484375 -1.84375 L 3.09375 -2.71875 C 3.226562 -2.90625 3.351562 -3.039062 3.46875 -3.125 C 3.582031 -3.207031 3.710938 -3.25 3.859375 -3.25 Z M 3.859375 -3.25 "/></g></g></g><g fill="#ffffff" fill-opacity="1"><g transform="translate(10.728616, 5.193477)"><g><path d="M 4.125 -2.765625 C 4.125 -2.648438 4.097656 -2.546875 4.046875 -2.453125 C 3.992188 -2.367188 3.925781 -2.304688 3.84375 -2.265625 C 3.769531 -2.222656 3.695312 -2.203125 3.625 -2.203125 C 3.539062 -2.203125 3.46875 -2.21875 3.40625 -2.25 C 3.34375 -2.28125 3.289062 -2.328125 3.25 -2.390625 L 2.09375 -0.421875 C 2 -0.265625 1.914062 -0.15625 1.84375 -0.09375 C 1.769531 -0.03125 1.6875 0 1.59375 0 C 1.488281 0 1.40625 -0.03125 1.34375 -0.09375 C 1.289062 -0.164062 1.25 -0.273438 1.21875 -0.421875 L 0.8125 -2.65625 C 0.800781 -2.707031 0.78125 -2.75 0.75 -2.78125 C 0.726562 -2.820312 0.695312 -2.863281 0.65625 -2.90625 C 0.625 -2.9375 0.601562 -2.960938 0.59375 -2.984375 C 0.582031 -3.003906 0.578125 -3.023438 0.578125 -3.046875 C 0.554688 -3.160156 0.628906 -3.21875 0.796875 -3.21875 L 2 -3.21875 C 2.070312 -3.21875 2.128906 -3.203125 2.171875 -3.171875 C 2.210938 -3.148438 2.226562 -3.113281 2.21875 -3.0625 C 2.21875 -3.03125 2.210938 -3.003906 2.203125 -2.984375 C 2.191406 -2.960938 2.175781 -2.9375 2.15625 -2.90625 C 2.125 -2.875 2.097656 -2.84375 2.078125 -2.8125 C 2.066406 -2.789062 2.0625 -2.757812 2.0625 -2.71875 C 2.0625 -2.695312 2.0625 -2.675781 2.0625 -2.65625 L 2.25 -1.53125 L 2.890625 -2.671875 C 3.003906 -2.878906 3.113281 -3.023438 3.21875 -3.109375 C 3.332031 -3.203125 3.46875 -3.25 3.625 -3.25 C 3.78125 -3.25 3.898438 -3.203125 3.984375 -3.109375 C 4.078125 -3.023438 4.125 -2.910156 4.125 -2.765625 Z M 4.125 -2.765625 "/></g></g></g><g fill="#ffffff" fill-opacity="1"><g transform="translate(14.275549, 5.193477)"><g><path d="M 3.15625 -3.21875 C 3.28125 -3.21875 3.375 -3.191406 3.4375 -3.140625 C 3.507812 -3.097656 3.546875 -3.03125 3.546875 -2.9375 C 3.546875 -2.894531 3.535156 -2.847656 3.515625 -2.796875 L 3.390625 -2.359375 C 3.367188 -2.265625 3.335938 -2.203125 3.296875 -2.171875 C 3.253906 -2.140625 3.191406 -2.125 3.109375 -2.125 C 3.035156 -2.125 2.972656 -2.140625 2.921875 -2.171875 C 2.878906 -2.203125 2.847656 -2.257812 2.828125 -2.34375 L 2.75 -2.609375 C 2.738281 -2.671875 2.71875 -2.710938 2.6875 -2.734375 C 2.664062 -2.753906 2.625 -2.765625 2.5625 -2.765625 L 2.046875 -2.765625 L 1.8125 -1.90625 L 2.03125 -1.90625 C 2.050781 -1.90625 2.078125 -1.921875 2.109375 -1.953125 L 2.28125 -2.09375 C 2.332031 -2.132812 2.375 -2.164062 2.40625 -2.1875 C 2.4375 -2.207031 2.476562 -2.21875 2.53125 -2.21875 C 2.59375 -2.21875 2.640625 -2.203125 2.671875 -2.171875 C 2.710938 -2.140625 2.734375 -2.097656 2.734375 -2.046875 C 2.734375 -2.035156 2.734375 -2.015625 2.734375 -1.984375 L 2.53125 -1.3125 C 2.507812 -1.238281 2.472656 -1.1875 2.421875 -1.15625 C 2.378906 -1.125 2.332031 -1.109375 2.28125 -1.109375 C 2.1875 -1.109375 2.117188 -1.15625 2.078125 -1.25 L 1.984375 -1.421875 C 1.960938 -1.460938 1.929688 -1.484375 1.890625 -1.484375 L 1.6875 -1.484375 L 1.40625 -0.46875 L 1.828125 -0.46875 C 1.890625 -0.46875 1.941406 -0.476562 1.984375 -0.5 C 2.035156 -0.519531 2.09375 -0.5625 2.15625 -0.625 L 2.4375 -0.953125 C 2.488281 -1.003906 2.535156 -1.039062 2.578125 -1.0625 C 2.628906 -1.09375 2.691406 -1.109375 2.765625 -1.109375 C 2.835938 -1.109375 2.894531 -1.085938 2.9375 -1.046875 C 2.976562 -1.015625 3 -0.96875 3 -0.90625 C 3 -0.882812 2.992188 -0.851562 2.984375 -0.8125 L 2.84375 -0.328125 C 2.8125 -0.203125 2.757812 -0.113281 2.6875 -0.0625 C 2.625 -0.0195312 2.523438 0 2.390625 0 L 0.09375 0 C 0.0195312 0 -0.03125 -0.0078125 -0.0625 -0.03125 C -0.101562 -0.0507812 -0.125 -0.0820312 -0.125 -0.125 C -0.125 -0.144531 -0.117188 -0.164062 -0.109375 -0.1875 C -0.0976562 -0.21875 -0.078125 -0.242188 -0.046875 -0.265625 C -0.015625 -0.285156 0 -0.300781 0 -0.3125 C 0.0507812 -0.34375 0.09375 -0.375 0.125 -0.40625 C 0.15625 -0.4375 0.1875 -0.492188 0.21875 -0.578125 L 0.8125 -2.65625 C 0.820312 -2.695312 0.828125 -2.738281 0.828125 -2.78125 C 0.828125 -2.8125 0.820312 -2.835938 0.8125 -2.859375 C 0.800781 -2.890625 0.785156 -2.921875 0.765625 -2.953125 C 0.734375 -2.992188 0.71875 -3.03125 0.71875 -3.0625 C 0.71875 -3.070312 0.71875 -3.085938 0.71875 -3.109375 C 0.738281 -3.148438 0.769531 -3.175781 0.8125 -3.1875 C 0.851562 -3.207031 0.921875 -3.21875 1.015625 -3.21875 Z M 3.15625 -3.21875 "/></g></g></g><g clip-path="url(#1728659dad)"><g fill="#ffffff" fill-opacity="1"><g transform="translate(17.474083, 5.193477)"><g><path d="M 3.765625 -3.21875 C 3.898438 -3.21875 3.96875 -3.175781 3.96875 -3.09375 C 3.96875 -3.070312 3.96875 -3.054688 3.96875 -3.046875 C 3.957031 -3.015625 3.941406 -2.988281 3.921875 -2.96875 C 3.898438 -2.957031 3.875 -2.941406 3.84375 -2.921875 C 3.789062 -2.890625 3.75 -2.851562 3.71875 -2.8125 C 3.6875 -2.78125 3.660156 -2.726562 3.640625 -2.65625 L 3.03125 -0.5 C 2.976562 -0.3125 2.910156 -0.175781 2.828125 -0.09375 C 2.742188 -0.0195312 2.628906 0.015625 2.484375 0.015625 C 2.359375 0.015625 2.253906 -0.0195312 2.171875 -0.09375 C 2.085938 -0.164062 2.003906 -0.285156 1.921875 -0.453125 L 1.203125 -1.984375 L 0.796875 -0.578125 C 0.785156 -0.535156 0.78125 -0.492188 0.78125 -0.453125 C 0.78125 -0.410156 0.785156 -0.375 0.796875 -0.34375 C 0.804688 -0.320312 0.828125 -0.296875 0.859375 -0.265625 C 0.890625 -0.222656 0.90625 -0.191406 0.90625 -0.171875 C 0.90625 -0.148438 0.90625 -0.132812 0.90625 -0.125 C 0.894531 -0.0703125 0.863281 -0.0351562 0.8125 -0.015625 C 0.769531 -0.00390625 0.703125 0 0.609375 0 L 0.09375 0 C -0.0390625 0 -0.109375 -0.0390625 -0.109375 -0.125 C -0.109375 -0.144531 -0.109375 -0.160156 -0.109375 -0.171875 C -0.0976562 -0.203125 -0.0820312 -0.226562 -0.0625 -0.25 C -0.0390625 -0.269531 -0.015625 -0.289062 0.015625 -0.3125 C 0.0664062 -0.34375 0.109375 -0.375 0.140625 -0.40625 C 0.171875 -0.4375 0.195312 -0.492188 0.21875 -0.578125 L 0.84375 -2.75 L 0.765625 -2.90625 C 0.734375 -2.96875 0.71875 -3.023438 0.71875 -3.078125 C 0.71875 -3.171875 0.78125 -3.21875 0.90625 -3.21875 L 1.625 -3.21875 C 1.726562 -3.21875 1.804688 -3.191406 1.859375 -3.140625 C 1.910156 -3.097656 1.96875 -3.019531 2.03125 -2.90625 L 2.734375 -1.484375 L 3.078125 -2.65625 C 3.078125 -2.695312 3.078125 -2.734375 3.078125 -2.765625 C 3.078125 -2.804688 3.070312 -2.835938 3.0625 -2.859375 C 3.050781 -2.890625 3.03125 -2.921875 3 -2.953125 C 2.96875 -2.992188 2.953125 -3.03125 2.953125 -3.0625 C 2.953125 -3.082031 2.953125 -3.097656 2.953125 -3.109375 C 2.960938 -3.148438 2.988281 -3.175781 3.03125 -3.1875 C 3.082031 -3.207031 3.15625 -3.21875 3.25 -3.21875 Z M 3.765625 -3.21875 "/></g></g></g></g></g></g></svg>